<svg xmlns="http://www.w3.org/2000/svg" xmlns:xlink="http://www.w3.org/1999/xlink" width="155.269" height="127.54" viewBox="0 0 163.441 164"><defs><linearGradient id="a" x1="1.608" y1="-0.554" x2="0.139" y2="0.843" gradientUnits="objectBoundingBox"><stop offset="0" stop-color="#83b755"/><stop offset="0.13" stop-color="#70b26d"/><stop offset="0.41" stop-color="#4aa89a"/><stop offset="0.66" stop-color="#2fa1bb"/><stop offset="0.86" stop-color="#1e9dd0"/><stop offset="1" stop-color="#189bd7"/></linearGradient><linearGradient id="b" x1="0.893" y1="0.138" x2="-1.26" y2="2.123" xlink:href="#a"/><linearGradient id="c" x1="1.458" y1="-0.718" x2="-0.204" y2="1.557" xlink:href="#a"/><linearGradient id="d" x1="0.937" y1="-0.179" x2="-0.878" y2="2.641" xlink:href="#a"/><linearGradient id="e" x1="2.906" y1="-1.36" x2="-0.114" y2="0.975" xlink:href="#a"/><linearGradient id="f" x1="2.155" y1="-1.998" x2="-1.024" y2="2.908" xlink:href="#a"/></defs><g transform="translate(-361.42 -354.949)"><circle cx="81.721" cy="81.721" r="81.721" transform="translate(361.42 355.508)" fill="#ffffff"/><path d="M401.37,486.885s6.415,9.759,30.707,4.986c0,0-.636,6.152,6.684,7a23.778,23.778,0,0,0,13.154-2.439s6.046-.215,4.029-10.085l7,.533s-.318,9.014,2.544,11.031,16.655,4.985,16.868-4.774c0,0,2.65,2.545,8.593,1.81s4.349-6.258,4.349-9.229.954-11.985.954-11.985a28.479,28.479,0,0,0,3.713-13.26c.093-7.427-3.607-20.472-3.819-32.99s-.517-25.14-.517-25.14,11.442,5.632,19.937,3.181,11.879-12.73,2.438-25.248c0,0-5.947-12.3-7.106-15.275s-9.123-8.7-17.928-7.424-18.67,7.742-18.034,21.744,1.487,47.523-1.81,53.568-7.957,5.092-16.549,3.289-23.655.954-31.506,17.928S417.014,480.519,401.37,486.885Z" transform="translate(-29.62 -1.813)" fill="#fff"/><path d="M406.6,841.331s14.32,3.892,20.446,0,7.447-7.791,7.447-7.791,1.994,6.258,1.461,11.352c0,0-12.177,2.891-20.751.437C415.2,845.329,408.379,843.338,406.6,841.331Z" transform="translate(-33.497 -354.834)" fill="#daecf1"/><path d="M595.623,823.075a18.89,18.89,0,0,0-.295-6.633c-.827-2.937-.191-6.995,1.034-8.626s1.947-6.953.838-9.826c0,0,3.721,5.084,11.326,3.817,0,0-1.859,9.914-2.069,11.745l-7-.533s1.717,6.436-1.448,8.932Z" transform="translate(-173.146 -328.477)" fill="#daecf1"/><path d="M725.467,810.8s-6.8,5.523-6.871,11.569.884,7.122.884,7.122-5.578.145-7.646-1.9l-.954-8.326a29,29,0,0,0,7.421-4.331,90.4,90.4,0,0,0,7.165-6.441Z" transform="translate(-259.095 -336.269)" fill="#daecf1"/><path d="M767.675,488.567s-10.007,5.43-18.758.649S733.64,474.5,733.64,474.5s6.684,27.2,8.885,40.412l-.543-25.747s8.275,3.68,14.271,3.775S766.175,491.179,767.675,488.567Z" transform="translate(-275.97 -88.637)" fill="#daecf1"/><path d="M514.148,804.944h-.034a.626.626,0,0,1-.59-.659,34.367,34.367,0,0,0-.745-8.665,45.343,45.343,0,0,1-.688-4.833c-.323-4.533,2-11.264,2.1-11.548a.626.626,0,0,1,1.182.414c-.023.067-2.327,6.772-2.035,11.044a42.672,42.672,0,0,0,.67,4.7,35.431,35.431,0,0,1,.763,8.957.623.623,0,0,1-.626.589Z" transform="translate(-111.688 -314.263)" fill="#1f2c38"/><path d="M593.868,811.509a.636.636,0,0,1-.308-.08.626.626,0,0,1-.24-.843c.026-.049.753-1.588-.065-5.624-.9-4.443-.259-7.062.98-9.625a13.844,13.844,0,0,0-.649-12.862.626.626,0,1,1,1.086-.621,15.1,15.1,0,0,1,.688,14.028c-1.158,2.4-1.709,4.717-.877,8.831.921,4.554.034,6.3-.07,6.48A.629.629,0,0,1,593.868,811.509Z" transform="translate(-171.574 -316.267)" fill="#1f2c38"/><path d="M608.714,805.713h-.054a.621.621,0,0,1-.569-.675,75.076,75.076,0,0,1,2-10.967c-2.586.279-9.625.341-12.073-6.633a.626.626,0,1,1,1.179-.416,8.289,8.289,0,0,0,6.723,5.689,13.845,13.845,0,0,0,4.882,0,.623.623,0,0,1,.734.776,76.761,76.761,0,0,0-2.206,11.66A.626.626,0,0,1,608.714,805.713Z" transform="translate(-175.387 -320.018)" fill="#1f2c38"/><path d="M710.03,825.533a.623.623,0,0,1-.615-.517,62.816,62.816,0,0,1-.964-8.456.623.623,0,0,1,.377-.553c.085-.039,8.717-3.825,14.618-10.912a.626.626,0,0,1,.962.8A45.118,45.118,0,0,1,709.7,816.986a68.727,68.727,0,0,0,.949,7.812.626.626,0,0,1-.517.724A.523.523,0,0,1,710.03,825.533Z" transform="translate(-257.291 -333.577)" fill="#1f2c38"/><ellipse cx="8.851" cy="6.708" rx="8.851" ry="6.708" transform="translate(404.296 448.785) rotate(-18.61)" fill="url(#a)"/><path d="M608.966,671.464c-3.165-1.655-6.584-1.363-7.636.654s.657,4.991,3.819,6.643,6.584,1.36,7.636-.654S612.133,673.117,608.966,671.464Z" transform="translate(-177.642 -233.874)" fill="url(#b)"/><path d="M538.185,670.633c3.964-1.334,6.586-4.538,6.519-7.633h-.972a28.83,28.83,0,0,0-14.672,6.273C531.09,671.189,534.661,671.82,538.185,670.633Z" transform="translate(-124.291 -228.393)" fill="url(#c)"/><path d="M751.956,366c-.168-1.461-2.5-2.4-5.2-2.089s-4.766,1.745-4.6,3.206,2.5,2.4,5.2,2.087S752.122,367.462,751.956,366Z" transform="translate(-282.274 -6.602)" fill="url(#d)"/><path d="M707.392,383.969c-1-.791-2.844-.119-4.137,1.5s-1.521,3.581-.517,4.373,2.845.119,4.137-1.5S708.393,384.765,707.392,383.969Z" transform="translate(-252.595 -21.269)" fill="url(#e)"/><path d="M720.647,365.771a23.376,23.376,0,0,0-5.407,2.982,4.409,4.409,0,0,0,3.47-.776C719.657,367.366,721.456,365.535,720.647,365.771Z" transform="translate(-262.327 -8.008)" fill="url(#f)"/><ellipse cx="1.73" cy="2.785" rx="1.73" ry="2.785" transform="translate(474.082 375.04) rotate(-16.25)" fill="#1f2c38"/><ellipse cx="1.73" cy="2.785" rx="1.73" ry="2.785" transform="translate(483.989 373.739) rotate(-16.25)" fill="#1f2c38"/><path d="M748.884,516.571a9.334,9.334,0,0,1-.755-.561,22.381,22.381,0,0,0-3.139.908c-3.3,1.228-5.689,3.1-6.907,5.43a.623.623,0,1,0,1.1.584c1.358-2.586,4.137-4.055,6.206-4.836a20.8,20.8,0,0,1,4.156-1.073C749.324,516.881,749.107,516.719,748.884,516.571Z" transform="translate(-279.21 -119.413)" fill="#86b755"/><path d="M856.316,558.271s-2.785-4.626-5.027-4.137q-.357-1.332-.734-2.609a6.757,6.757,0,0,0,5.5,1.81c-2.586-6.568-5.591-6.421-6.816-6.017-.422-1.264-.84-2.454-1.236-3.543,2.844,2.048,8.688,1.127,8.688,1.127-5.466-7.652-8.57-5.024-9.619-3.62-1.034-2.687-1.779-4.342-1.81-4.4a.626.626,0,0,0-1.14.517c.028.062,1.146,2.563,2.565,6.421-4.355-.031-5.384,8.756-5.384,8.756,4.75-1.4,6.206-3.677,6.519-5.547.347,1.034.7,2.1,1.034,3.219-3.7.466-3.9,9.327-3.9,9.327,3.281-2.557,4.375-5,4.678-6.723.558,1.958,1.086,4.008,1.539,6.095-.838.222-2.221,1.146-2.294,4.833a4.537,4.537,0,0,0,2.661-3.054c.246,1.257.458,2.519.634,3.775-2.327.714,1.319,5.854,1.319,5.854s2.433-5.138-.057-5.854c-.334-2.459-.82-4.942-1.391-7.357A8.12,8.12,0,0,0,856.316,558.271Z" transform="translate(-355.79 -134.618)" fill="#86b755"/><path d="M546.3,884.653c0-2.242,1.107-4.057,2.469-4.057.99,0,1.841.959,2.234,2.327.129-2.043,1.179-3.636,2.454-3.636.985,0,1.833.949,2.229,2.327v-.137c0-2.242,1.107-4.057,2.469-4.057a2,2,0,0,1,1.57.923l-.587,4.042a26.525,26.525,0,0,1-6.816,2.082C549.537,884.7,546.3,884.653,546.3,884.653Z" transform="translate(-137.073 -387.368)" fill="#1f2c38"/><path d="M666.7,889.6a6.406,6.406,0,0,1-.14-1.345c0-2.242,1.1-4.057,2.467-4.057.887,0,1.66.776,2.1,1.919.435-1.151,1.21-1.919,2.094-1.919a2.014,2.014,0,0,1,1.588.952c.411-1.293,1.236-2.2,2.19-2.2a2.226,2.226,0,0,1,1.826,1.324s-.983,3.315-3.072,4.373S666.7,889.6,666.7,889.6Z" transform="translate(-226.235 -391.467)" fill="#1f2c38"/><path d="M753.437,874.637c-.225.1-.044-.494-.044-.75,0-2.239,1.107-4.057,2.47-4.057a1.583,1.583,0,0,1,.714.173S756.015,873.494,753.437,874.637Z" transform="translate(-290.563 -381.74)" fill="#1f2c38"/><path d="M472.169,498.8a18.322,18.322,0,0,1-8.851-2.182c-2.7-1.9-2.844-8.758-2.824-10.967l-5.6-.424c.605,3.571.2,6.279-1.195,8.055a5.172,5.172,0,0,1-3.416,1.95,24.262,24.262,0,0,1-13.41,2.449c-6.18-.716-7.116-5.035-7.24-6.865-6.958,1.293-16.531,2.118-24.074-.877-4.768-1.9-6.465-4.414-6.537-4.523a.631.631,0,0,1,.287-.923c12.022-4.89,14.693-11.5,19.115-22.443,1.2-2.971,2.56-6.338,4.261-10.018,3.543-7.657,9-13.3,15.789-16.314a27.566,27.566,0,0,1,16.412-1.963c8.518,1.787,12.792,2.687,15.869-2.974.952-1.748,2.12-7.24,2.3-23.511.14-12.859-.4-26.008-.569-29.737-.657-14.452,9.591-21.1,18.566-22.393s17.258,4.4,18.6,7.817c1.1,2.813,6.628,14.276,7.062,15.176,5.079,6.754,6.891,13.421,5.1,18.773a11.334,11.334,0,0,1-7.908,7.4c-3.62,1.034-8.174.817-13.5-.675a46.8,46.8,0,0,1-5.963-2.123c.08,3.232.331,13.783.517,24.144a137.939,137.939,0,0,0,2.25,19.722c.869,5.273,1.619,9.826,1.567,13.286a29.029,29.029,0,0,1-3.729,13.446c-.119,1.146-.936,9.079-.936,11.784,0,.46.041,1,.085,1.577.23,3.018.579,7.577-4.983,8.275-4.187.517-6.832-.517-8.135-1.293a6.6,6.6,0,0,1-3.643,5.234A11.513,11.513,0,0,1,472.169,498.8ZM454.13,483.916h.049l7,.517a.629.629,0,0,1,.579.647c-.085,2.415.16,9.006,2.281,10.5,1.836,1.293,8.766,3.051,12.834,1a5.575,5.575,0,0,0,3.046-5.273.626.626,0,0,1,1.058-.44c.023.021,2.552,2.327,8.083,1.634,4.38-.548,4.119-3.941,3.879-6.935-.047-.6-.088-1.164-.088-1.673,0-2.969.918-11.683.957-12.053a.631.631,0,0,1,.09-.259,28.268,28.268,0,0,0,3.62-12.929c.047-3.362-.693-7.856-1.552-13.069A138.757,138.757,0,0,1,493.7,425.67c-.209-12.371-.517-25.008-.53-25.135a.623.623,0,0,1,.9-.577c.114.054,11.344,5.485,19.495,3.142a10.119,10.119,0,0,0,7.067-6.6c1.657-4.962-.1-11.238-4.955-17.672a.843.843,0,0,1-.065-.1c-.241-.5-5.963-12.36-7.124-15.319-1.083-2.757-8.725-8.275-17.255-7.036-8.458,1.223-18.116,7.483-17.5,21.1.217,4.766,2,46.757-1.88,53.9-3.522,6.465-8.678,5.394-17.224,3.6a26.015,26.015,0,0,0-15.65,1.883c-6.506,2.888-11.748,8.316-15.161,15.694-1.689,3.654-3.041,7.005-4.236,9.961-4.3,10.633-7.168,17.736-19.014,22.8a15.331,15.331,0,0,0,5.572,3.5c7.517,2.935,17.2,1.96,23.992.623a.626.626,0,0,1,.742.677c-.021.225-.463,5.552,6.134,6.317a23.289,23.289,0,0,0,12.774-2.363.613.613,0,0,1,.284-.08,3.851,3.851,0,0,0,2.661-1.5c1.233-1.588,1.5-4.29.776-7.82a.634.634,0,0,1,.145-.54A.623.623,0,0,1,454.13,483.916ZM399.568,485.072Z" transform="translate(-27.805 0)" fill="#1f2c38"/><path d="M778.237,512.764a.662.662,0,0,1-.121,0c-3-.582-6.439-3.677-6.584-3.809a.626.626,0,0,1,.838-.928c.034.031,3.328,2.994,5.986,3.509a.626.626,0,0,1-.119,1.241Z" transform="translate(-303.924 -113.387)" fill="#1f2c38"/></g></svg>